<svg id="mermaid-svg" width="100%" xmlns="http://www.w3.org/2000/svg" class="classDiagram" style="max-width: 2553.6640625px;" viewBox="0 0 2553.6640625 884" role="graphics-document document" aria-roledescription="class" xmlns:xlink="http://www.w3.org/1999/xlink"><style xmlns="http://www.w3.org/1999/xhtml">@import url("https://cdnjs.cloudflare.com/ajax/libs/font-awesome/6.7.2/css/all.min.css");</style><style>#mermaid-svg{font-family:"trebuchet ms",verdana,arial,sans-serif;font-size:16px;fill:#ccc;}@keyframes edge-animation-frame{from{stroke-dashoffset:0;}}@keyframes dash{to{stroke-dashoffset:0;}}#mermaid-svg .edge-animation-slow{stroke-dasharray:9,5!important;stroke-dashoffset:900;animation:dash 50s linear infinite;stroke-linecap:round;}#mermaid-svg .edge-animation-fast{stroke-dasharray:9,5!important;stroke-dashoffset:900;animation:dash 20s linear infinite;stroke-linecap:round;}#mermaid-svg .error-icon{fill:#a44141;}#mermaid-svg .error-text{fill:#ddd;stroke:#ddd;}#mermaid-svg .edge-thickness-normal{stroke-width:1px;}#mermaid-svg .edge-thickness-thick{stroke-width:3.5px;}#mermaid-svg .edge-pattern-solid{stroke-dasharray:0;}#mermaid-svg .edge-thickness-invisible{stroke-width:0;fill:none;}#mermaid-svg .edge-pattern-dashed{stroke-dasharray:3;}#mermaid-svg .edge-pattern-dotted{stroke-dasharray:2;}#mermaid-svg .marker{fill:lightgrey;stroke:lightgrey;}#mermaid-svg .marker.cross{stroke:lightgrey;}#mermaid-svg svg{font-family:"trebuchet ms",verdana,arial,sans-serif;font-size:16px;}#mermaid-svg p{margin:0;}#mermaid-svg g.classGroup text{fill:#ccc;stroke:none;font-family:"trebuchet ms",verdana,arial,sans-serif;font-size:10px;}#mermaid-svg g.classGroup text .title{font-weight:bolder;}#mermaid-svg .nodeLabel,#mermaid-svg .edgeLabel{color:#e0dfdf;}#mermaid-svg .edgeLabel .label rect{fill:#1f2020;}#mermaid-svg .label text{fill:#e0dfdf;}#mermaid-svg .labelBkg{background:#1f2020;}#mermaid-svg .edgeLabel .label span{background:#1f2020;}#mermaid-svg .classTitle{font-weight:bolder;}#mermaid-svg .node rect,#mermaid-svg .node circle,#mermaid-svg .node ellipse,#mermaid-svg .node polygon,#mermaid-svg .node path{fill:#1f2020;stroke:#ccc;stroke-width:1px;}#mermaid-svg .divider{stroke:#ccc;stroke-width:1;}#mermaid-svg g.clickable{cursor:pointer;}#mermaid-svg g.classGroup rect{fill:#1f2020;stroke:#ccc;}#mermaid-svg g.classGroup line{stroke:#ccc;stroke-width:1;}#mermaid-svg .classLabel .box{stroke:none;stroke-width:0;fill:#1f2020;opacity:0.5;}#mermaid-svg .classLabel .label{fill:#ccc;font-size:10px;}#mermaid-svg .relation{stroke:lightgrey;stroke-width:1;fill:none;}#mermaid-svg .dashed-line{stroke-dasharray:3;}#mermaid-svg .dotted-line{stroke-dasharray:1 2;}#mermaid-svg #compositionStart,#mermaid-svg .composition{fill:lightgrey!important;stroke:lightgrey!important;stroke-width:1;}#mermaid-svg #compositionEnd,#mermaid-svg .composition{fill:lightgrey!important;stroke:lightgrey!important;stroke-width:1;}#mermaid-svg #dependencyStart,#mermaid-svg .dependency{fill:lightgrey!important;stroke:lightgrey!important;stroke-width:1;}#mermaid-svg #dependencyStart,#mermaid-svg .dependency{fill:lightgrey!important;stroke:lightgrey!important;stroke-width:1;}#mermaid-svg #extensionStart,#mermaid-svg .extension{fill:transparent!important;stroke:lightgrey!important;stroke-width:1;}#mermaid-svg #extensionEnd,#mermaid-svg .extension{fill:transparent!important;stroke:lightgrey!important;stroke-width:1;}#mermaid-svg #aggregationStart,#mermaid-svg .aggregation{fill:transparent!important;stroke:lightgrey!important;stroke-width:1;}#mermaid-svg #aggregationEnd,#mermaid-svg .aggregation{fill:transparent!important;stroke:lightgrey!important;stroke-width:1;}#mermaid-svg #lollipopStart,#mermaid-svg .lollipop{fill:#1f2020!important;stroke:lightgrey!important;stroke-width:1;}#mermaid-svg #lollipopEnd,#mermaid-svg .lollipop{fill:#1f2020!important;stroke:lightgrey!important;stroke-width:1;}#mermaid-svg .edgeTerminals{font-size:11px;line-height:initial;}#mermaid-svg .classTitleText{text-anchor:middle;font-size:18px;fill:#ccc;}#mermaid-svg .label-icon{display:inline-block;height:1em;overflow:visible;vertical-align:-0.125em;}#mermaid-svg .node .label-icon path{fill:currentColor;stroke:revert;stroke-width:revert;}#mermaid-svg :root{--mermaid-font-family:"trebuchet ms",verdana,arial,sans-serif;}</style><g><defs><marker id="mermaid-svg_class-aggregationStart" class="marker aggregation class" refX="18" refY="7" markerWidth="190" markerHeight="240" orient="auto"><path d="M 18,7 L9,13 L1,7 L9,1 Z"/></marker></defs><defs><marker id="mermaid-svg_class-aggregationEnd" class="marker aggregation class" refX="1" refY="7" markerWidth="20" markerHeight="28" orient="auto"><path d="M 18,7 L9,13 L1,7 L9,1 Z"/></marker></defs><defs><marker id="mermaid-svg_class-extensionStart" class="marker extension class" refX="18" refY="7" markerWidth="190" markerHeight="240" orient="auto"><path d="M 1,7 L18,13 V 1 Z"/></marker></defs><defs><marker id="mermaid-svg_class-extensionEnd" class="marker extension class" refX="1" refY="7" markerWidth="20" markerHeight="28" orient="auto"><path d="M 1,1 V 13 L18,7 Z"/></marker></defs><defs><marker id="mermaid-svg_class-compositionStart" class="marker composition class" refX="18" refY="7" markerWidth="190" markerHeight="240" orient="auto"><path d="M 18,7 L9,13 L1,7 L9,1 Z"/></marker></defs><defs><marker id="mermaid-svg_class-compositionEnd" class="marker composition class" refX="1" refY="7" markerWidth="20" markerHeight="28" orient="auto"><path d="M 18,7 L9,13 L1,7 L9,1 Z"/></marker></defs><defs><marker id="mermaid-svg_class-dependencyStart" class="marker dependency class" refX="6" refY="7" markerWidth="190" markerHeight="240" orient="auto"><path d="M 5,7 L9,13 L1,7 L9,1 Z"/></marker></defs><defs><marker id="mermaid-svg_class-dependencyEnd" class="marker dependency class" refX="13" refY="7" markerWidth="20" markerHeight="28" orient="auto"><path d="M 18,7 L9,13 L14,7 L9,1 Z"/></marker></defs><defs><marker id="mermaid-svg_class-lollipopStart" class="marker lollipop class" refX="13" refY="7" markerWidth="190" markerHeight="240" orient="auto"><circle stroke="black" fill="transparent" cx="7" cy="7" r="6"/></marker></defs><defs><marker id="mermaid-svg_class-lollipopEnd" class="marker lollipop class" refX="1" refY="7" markerWidth="190" markerHeight="240" orient="auto"><circle stroke="black" fill="transparent" cx="7" cy="7" r="6"/></marker></defs><g class="root"><g class="clusters"/><g class="edgePaths"><path d="M1232.264,253.212L1087.304,286.51C942.345,319.808,652.426,386.404,507.467,426.869C362.508,467.333,362.508,481.667,362.508,488.833L362.508,496" id="id_LeafDiseaseNotebook_DataPipeline_1" class=" edge-thickness-normal edge-pattern-solid relation" style=";;;" data-edge="true" data-et="edge" data-id="id_LeafDiseaseNotebook_DataPipeline_1" data-points="W3sieCI6MTIzMi4yNjM2NzE4NzUsInkiOjI1My4yMTE2MzU3MzAwMTYyfSx7IngiOjM2Mi41MDc4MTI1LCJ5Ijo0NTN9LHsieCI6MzYyLjUwNzgxMjUsInkiOjUwMn1d" marker-end="url(#mermaid-svg_class-dependencyEnd)"/><path d="M1232.264,334.501L1203.339,354.251C1174.414,374.001,1116.564,413.5,1087.64,443.417C1058.715,473.333,1058.715,493.667,1058.715,503.833L1058.715,514" id="id_LeafDiseaseNotebook_CnnModel_2" class=" edge-thickness-normal edge-pattern-solid relation" style=";;;" data-edge="true" data-et="edge" data-id="id_LeafDiseaseNotebook_CnnModel_2" data-points="W3sieCI6MTIzMi4yNjM2NzE4NzUsInkiOjMzNC41MDEwNTQxNDYwMzEwNH0seyJ4IjoxMDU4LjcxNDg0Mzc1LCJ5Ijo0NTN9LHsieCI6MTA1OC43MTQ4NDM3NSwieSI6NTIwfV0=" marker-end="url(#mermaid-svg_class-dependencyEnd)"/><path d="M1591.084,334.501L1620.009,354.251C1648.934,374.001,1706.783,413.5,1735.708,438.417C1764.633,463.333,1764.633,473.667,1764.633,478.833L1764.633,484" id="id_LeafDiseaseNotebook_TrainingConfig_3" class=" edge-thickness-normal edge-pattern-solid relation" style=";;;" data-edge="true" data-et="edge" data-id="id_LeafDiseaseNotebook_TrainingConfig_3" data-points="W3sieCI6MTU5MS4wODM5ODQzNzUsInkiOjMzNC41MDEwNTQxNDYwMzEwNH0seyJ4IjoxNzY0LjYzMjgxMjUsInkiOjQ1M30seyJ4IjoxNzY0LjYzMjgxMjUsInkiOjQ5MH1d" marker-end="url(#mermaid-svg_class-dependencyEnd)"/><path d="M1591.084,257.486L1719.613,290.071C1848.142,322.657,2105.2,387.829,2233.729,430.581C2362.258,473.333,2362.258,493.667,2362.258,503.833L2362.258,514" id="id_LeafDiseaseNotebook_EvaluationAndInference_4" class=" edge-thickness-normal edge-pattern-solid relation" style=";;;" data-edge="true" data-et="edge" data-id="id_LeafDiseaseNotebook_EvaluationAndInference_4" data-points="W3sieCI6MTU5MS4wODM5ODQzNzUsInkiOjI1Ny40ODU1NjI5NDU0NzU1fSx7IngiOjIzNjIuMjU3ODEyNSwieSI6NDUzfSx7IngiOjIzNjIuMjU3ODEyNSwieSI6NTIwfV0=" marker-end="url(#mermaid-svg_class-dependencyEnd)"/><path d="M362.508,706L362.508,714.167C362.508,722.333,362.508,738.667,362.508,752C362.508,765.333,362.508,775.667,362.508,780.833L362.508,786" id="id_DataPipeline_ImageDataGenerator_5" class=" edge-thickness-normal edge-pattern-solid relation" style=";;;" data-edge="true" data-et="edge" data-id="id_DataPipeline_ImageDataGenerator_5" data-points="W3sieCI6MzYyLjUwNzgxMjUsInkiOjcwNn0seyJ4IjozNjIuNTA3ODEyNSwieSI6NzU1fSx7IngiOjM2Mi41MDc4MTI1LCJ5Ijo3OTJ9XQ==" marker-end="url(#mermaid-svg_class-dependencyEnd)"/><path d="M1058.715,688L1058.715,699.167C1058.715,710.333,1058.715,732.667,1058.715,749C1058.715,765.333,1058.715,775.667,1058.715,780.833L1058.715,786" id="id_CnnModel_Sequential_6" class=" edge-thickness-normal edge-pattern-solid relation" style=";;;" data-edge="true" data-et="edge" data-id="id_CnnModel_Sequential_6" data-points="W3sieCI6MTA1OC43MTQ4NDM3NSwieSI6Njg4fSx7IngiOjEwNTguNzE0ODQzNzUsInkiOjc1NX0seyJ4IjoxMDU4LjcxNDg0Mzc1LCJ5Ijo3OTJ9XQ==" marker-end="url(#mermaid-svg_class-dependencyEnd)"/><path d="M1764.633,718L1764.633,724.167C1764.633,730.333,1764.633,742.667,1764.633,754C1764.633,765.333,1764.633,775.667,1764.633,780.833L1764.633,786" id="id_TrainingConfig_EarlyStopping_7" class=" edge-thickness-normal edge-pattern-solid relation" style=";;;" data-edge="true" data-et="edge" data-id="id_TrainingConfig_EarlyStopping_7" data-points="W3sieCI6MTc2NC42MzI4MTI1LCJ5Ijo3MTh9LHsieCI6MTc2NC42MzI4MTI1LCJ5Ijo3NTV9LHsieCI6MTc2NC42MzI4MTI1LCJ5Ijo3OTJ9XQ==" marker-end="url(#mermaid-svg_class-dependencyEnd)"/></g><g class="edgeLabels"><g class="edgeLabel" transform="translate(362.5078125, 453)"><g class="label" data-id="id_LeafDiseaseNotebook_DataPipeline_1" transform="translate(-16.8984375, -12)"><foreignObject width="33.796875" height="24"><div xmlns="http://www.w3.org/1999/xhtml" class="labelBkg" style="display: table-cell; white-space: nowrap; line-height: 1.5; max-width: 200px; text-align: center;"><span class="edgeLabel "><p>uses</p></span></div></foreignObject></g></g><g class="edgeLabel" transform="translate(1058.71484375, 453)"><g class="label" data-id="id_LeafDiseaseNotebook_CnnModel_2" transform="translate(-20.90625, -12)"><foreignObject width="41.8125" height="24"><div xmlns="http://www.w3.org/1999/xhtml" class="labelBkg" style="display: table-cell; white-space: nowrap; line-height: 1.5; max-width: 200px; text-align: center;"><span class="edgeLabel "><p>builds</p></span></div></foreignObject></g></g><g class="edgeLabel" transform="translate(1764.6328125, 453)"><g class="label" data-id="id_LeafDiseaseNotebook_TrainingConfig_3" transform="translate(-36.9140625, -12)"><foreignObject width="73.828125" height="24"><div xmlns="http://www.w3.org/1999/xhtml" class="labelBkg" style="display: table-cell; white-space: nowrap; line-height: 1.5; max-width: 200px; text-align: center;"><span class="edgeLabel "><p>configures</p></span></div></foreignObject></g></g><g class="edgeLabel" transform="translate(2362.2578125, 453)"><g class="label" data-id="id_LeafDiseaseNotebook_EvaluationAndInference_4" transform="translate(-34.25, -12)"><foreignObject width="68.5" height="24"><div xmlns="http://www.w3.org/1999/xhtml" class="labelBkg" style="display: table-cell; white-space: nowrap; line-height: 1.5; max-width: 200px; text-align: center;"><span class="edgeLabel "><p>evaluates</p></span></div></foreignObject></g></g><g class="edgeLabel" transform="translate(362.5078125, 755)"><g class="label" data-id="id_DataPipeline_ImageDataGenerator_5" transform="translate(-21.34375, -12)"><foreignObject width="42.6875" height="24"><div xmlns="http://www.w3.org/1999/xhtml" class="labelBkg" style="display: table-cell; white-space: nowrap; line-height: 1.5; max-width: 200px; text-align: center;"><span class="edgeLabel "><p>wraps</p></span></div></foreignObject></g></g><g class="edgeLabel" transform="translate(1058.71484375, 755)"><g class="label" data-id="id_CnnModel_Sequential_6" transform="translate(-18.6796875, -12)"><foreignObject width="37.359375" height="24"><div xmlns="http://www.w3.org/1999/xhtml" class="labelBkg" style="display: table-cell; white-space: nowrap; line-height: 1.5; max-width: 200px; text-align: center;"><span class="edgeLabel "><p>owns</p></span></div></foreignObject></g></g><g class="edgeLabel" transform="translate(1764.6328125, 755)"><g class="label" data-id="id_TrainingConfig_EarlyStopping_7" transform="translate(-28.0234375, -12)"><foreignObject width="56.046875" height="24"><div xmlns="http://www.w3.org/1999/xhtml" class="labelBkg" style="display: table-cell; white-space: nowrap; line-height: 1.5; max-width: 200px; text-align: center;"><span class="edgeLabel "><p>optional</p></span></div></foreignObject></g></g><g class="edgeTerminals" transform="translate(372.50781125, 769.4999989285715)"><g class="inner" transform="translate(0, 0)"/><foreignObject style="width: 9px; height: 12px;"><div xmlns="http://www.w3.org/1999/xhtml" style="display: inline-block; padding-right: 1px; white-space: nowrap;"><span class="edgeLabel">1</span></div></foreignObject></g><g class="edgeTerminals" transform="translate(1068.714841875, 769.4999983928572)"><g class="inner" transform="translate(0, 0)"/><foreignObject style="width: 9px; height: 12px;"><div xmlns="http://www.w3.org/1999/xhtml" style="display: inline-block; padding-right: 1px; white-space: nowrap;"><span class="edgeLabel">1</span></div></foreignObject></g><g class="edgeTerminals" transform="translate(1774.63281125, 769.4999989285715)"><g class="inner" transform="translate(0, 0)"/><foreignObject style="width: 9px; height: 12px;"><div xmlns="http://www.w3.org/1999/xhtml" style="display: inline-block; padding-right: 1px; white-space: nowrap;"><span class="edgeLabel">1</span></div></foreignObject></g></g><g class="nodes"><g class="node default " id="classId-LeafDiseaseNotebook-0" transform="translate(1411.673828125, 212)"><g class="basic label-container"><path d="M-179.41015625 -204 L179.41015625 -204 L179.41015625 204 L-179.41015625 204" stroke="none" stroke-width="0" fill="#1f2020" style=""/><path d="M-179.41015625 -204 C-51.19434241497362 -204, 77.02147142005276 -204, 179.41015625 -204 M-179.41015625 -204 C-56.18948788351541 -204, 67.03118048296918 -204, 179.41015625 -204 M179.41015625 -204 C179.41015625 -85.64570185318334, 179.41015625 32.70859629363332, 179.41015625 204 M179.41015625 -204 C179.41015625 -102.70276497711257, 179.41015625 -1.4055299542251305, 179.41015625 204 M179.41015625 204 C98.0141062486505 204, 16.618056247301013 204, -179.41015625 204 M179.41015625 204 C85.62277424043798 204, -8.164607769124046 204, -179.41015625 204 M-179.41015625 204 C-179.41015625 91.03534869937862, -179.41015625 -21.929302601242767, -179.41015625 -204 M-179.41015625 204 C-179.41015625 106.88140165018933, -179.41015625 9.762803300378664, -179.41015625 -204" stroke="#ccc" stroke-width="1.3" fill="none" stroke-dasharray="0 0" style=""/></g><g class="annotation-group text" transform="translate(0, -180)"/><g class="label-group text" transform="translate(-83.5859375, -180)"><g class="label" style="font-weight: bolder" transform="translate(0,-12)"><foreignObject width="167.171875" height="24"><div xmlns="http://www.w3.org/1999/xhtml" style="display: table-cell; white-space: nowrap; line-height: 1.5; max-width: 192px; text-align: center;"><span class="nodeLabel markdown-node-label" style=""><p>LeafDiseaseNotebook</p></span></div></foreignObject></g></g><g class="members-group text" transform="translate(-167.41015625, -132)"><g class="label" style="" transform="translate(0,-12)"><foreignObject width="139.234375" height="24"><div xmlns="http://www.w3.org/1999/xhtml" style="display: table-cell; white-space: nowrap; line-height: 1.5; max-width: 176px; text-align: center;"><span class="nodeLabel markdown-node-label" style=""><p>+Path dataset_path</p></span></div></foreignObject></g><g class="label" style="" transform="translate(0,12)"><foreignObject width="108.96875" height="24"><div xmlns="http://www.w3.org/1999/xhtml" style="display: table-cell; white-space: nowrap; line-height: 1.5; max-width: 158px; text-align: center;"><span class="nodeLabel markdown-node-label" style=""><p>+int img_height</p></span></div></foreignObject></g><g class="label" style="" transform="translate(0,36)"><foreignObject width="102.71875" height="24"><div xmlns="http://www.w3.org/1999/xhtml" style="display: table-cell; white-space: nowrap; line-height: 1.5; max-width: 154px; text-align: center;"><span class="nodeLabel markdown-node-label" style=""><p>+int img_width</p></span></div></foreignObject></g><g class="label" style="" transform="translate(0,60)"><foreignObject width="107.1875" height="24"><div xmlns="http://www.w3.org/1999/xhtml" style="display: table-cell; white-space: nowrap; line-height: 1.5; max-width: 162px; text-align: center;"><span class="nodeLabel markdown-node-label" style=""><p>+int batch_size</p></span></div></foreignObject></g><g class="label" style="" transform="translate(0,84)"><foreignObject width="163.1875" height="24"><div xmlns="http://www.w3.org/1999/xhtml" style="display: table-cell; white-space: nowrap; line-height: 1.5; max-width: 238px; text-align: center;"><span class="nodeLabel markdown-node-label" style=""><p>+list&lt;str&gt; class_names</p></span></div></foreignObject></g><g class="label" style="" transform="translate(0,108)"><foreignObject width="132.984375" height="24"><div xmlns="http://www.w3.org/1999/xhtml" style="display: table-cell; white-space: nowrap; line-height: 1.5; max-width: 176px; text-align: center;"><span class="nodeLabel markdown-node-label" style=""><p>+Sequential model</p></span></div></foreignObject></g><g class="label" style="" transform="translate(0,132)"><foreignObject width="110.703125" height="24"><div xmlns="http://www.w3.org/1999/xhtml" style="display: table-cell; white-space: nowrap; line-height: 1.5; max-width: 160px; text-align: center;"><span class="nodeLabel markdown-node-label" style=""><p>+History history</p></span></div></foreignObject></g><g class="label" style="" transform="translate(0,156)"><foreignObject width="221.9375" height="24"><div xmlns="http://www.w3.org/1999/xhtml" style="display: table-cell; white-space: nowrap; line-height: 1.5; max-width: 251px; text-align: center;"><span class="nodeLabel markdown-node-label" style=""><p>+ImageDataGenerator datagen</p></span></div></foreignObject></g><g class="label" style="" transform="translate(0,180)"><foreignObject width="199.65625" height="24"><div xmlns="http://www.w3.org/1999/xhtml" style="display: table-cell; white-space: nowrap; line-height: 1.5; max-width: 240px; text-align: center;"><span class="nodeLabel markdown-node-label" style=""><p>+DirectoryIterator train_data</p></span></div></foreignObject></g><g class="label" style="" transform="translate(0,204)"><foreignObject width="188.984375" height="24"><div xmlns="http://www.w3.org/1999/xhtml" style="display: table-cell; white-space: nowrap; line-height: 1.5; max-width: 230px; text-align: center;"><span class="nodeLabel markdown-node-label" style=""><p>+DirectoryIterator val_data</p></span></div></foreignObject></g><g class="label" style="" transform="translate(0,228)"><foreignObject width="234.359375" height="24"><div xmlns="http://www.w3.org/1999/xhtml" style="display: table-cell; white-space: nowrap; line-height: 1.5; max-width: 312px; text-align: center;"><span class="nodeLabel markdown-node-label" style=""><p>+dict&lt;int,float&gt; class_weight_dict</p></span></div></foreignObject></g><g class="label" style="" transform="translate(0,252)"><foreignObject width="187.234375" height="24"><div xmlns="http://www.w3.org/1999/xhtml" style="display: table-cell; white-space: nowrap; line-height: 1.5; max-width: 227px; text-align: center;"><span class="nodeLabel markdown-node-label" style=""><p>+EarlyStopping early_stop</p></span></div></foreignObject></g></g><g class="methods-group text" transform="translate(-167.41015625, 180)"><g class="label" style="" transform="translate(0,-12)"><foreignObject width="251.234375" height="24"><div xmlns="http://www.w3.org/1999/xhtml" style="display: table-cell; white-space: nowrap; line-height: 1.5; max-width: 287px; text-align: center;"><span class="nodeLabel markdown-node-label" style=""><p>+predict_image(img_path str) : void</p></span></div></foreignObject></g></g><g class="divider" style=""><path d="M-179.41015625 -156 C-65.91041954948462 -156, 47.58931715103077 -156, 179.41015625 -156 M-179.41015625 -156 C-49.88094161663216 -156, 79.64827301673569 -156, 179.41015625 -156" stroke="#ccc" stroke-width="1.3" fill="none" stroke-dasharray="0 0" style=""/></g><g class="divider" style=""><path d="M-179.41015625 156 C-94.75348762944697 156, -10.096819008893931 156, 179.41015625 156 M-179.41015625 156 C-90.20083730675208 156, -0.9915183635041558 156, 179.41015625 156" stroke="#ccc" stroke-width="1.3" fill="none" stroke-dasharray="0 0" style=""/></g></g><g class="node default " id="classId-DataPipeline-1" transform="translate(362.5078125, 604)"><g class="basic label-container"><path d="M-354.5078125 -102 L354.5078125 -102 L354.5078125 102 L-354.5078125 102" stroke="none" stroke-width="0" fill="#1f2020" style=""/><path d="M-354.5078125 -102 C-136.25186394297066 -102, 82.00408461405868 -102, 354.5078125 -102 M-354.5078125 -102 C-170.41783008492865 -102, 13.672152330142694 -102, 354.5078125 -102 M354.5078125 -102 C354.5078125 -46.613290215080035, 354.5078125 8.77341956983993, 354.5078125 102 M354.5078125 -102 C354.5078125 -51.8921527761767, 354.5078125 -1.784305552353402, 354.5078125 102 M354.5078125 102 C165.76591736022607 102, -22.97597777954786 102, -354.5078125 102 M354.5078125 102 C206.85449659028336 102, 59.20118068056672 102, -354.5078125 102 M-354.5078125 102 C-354.5078125 29.73319557960822, -354.5078125 -42.53360884078356, -354.5078125 -102 M-354.5078125 102 C-354.5078125 50.45003366761148, -354.5078125 -1.099932664777043, -354.5078125 -102" stroke="#ccc" stroke-width="1.3" fill="none" stroke-dasharray="0 0" style=""/></g><g class="annotation-group text" transform="translate(0, -78)"/><g class="label-group text" transform="translate(-48.015625, -78)"><g class="label" style="font-weight: bolder" transform="translate(0,-12)"><foreignObject width="96.03125" height="24"><div xmlns="http://www.w3.org/1999/xhtml" style="display: table-cell; white-space: nowrap; line-height: 1.5; max-width: 133px; text-align: center;"><span class="nodeLabel markdown-node-label" style=""><p>DataPipeline</p></span></div></foreignObject></g></g><g class="members-group text" transform="translate(-342.5078125, -30)"><g class="label" style="" transform="translate(0,-12)"><foreignObject width="221.9375" height="24"><div xmlns="http://www.w3.org/1999/xhtml" style="display: table-cell; white-space: nowrap; line-height: 1.5; max-width: 251px; text-align: center;"><span class="nodeLabel markdown-node-label" style=""><p>+ImageDataGenerator datagen</p></span></div></foreignObject></g><g class="label" style="" transform="translate(0,12)"><foreignObject width="199.65625" height="24"><div xmlns="http://www.w3.org/1999/xhtml" style="display: table-cell; white-space: nowrap; line-height: 1.5; max-width: 240px; text-align: center;"><span class="nodeLabel markdown-node-label" style=""><p>+DirectoryIterator train_data</p></span></div></foreignObject></g><g class="label" style="" transform="translate(0,36)"><foreignObject width="188.984375" height="24"><div xmlns="http://www.w3.org/1999/xhtml" style="display: table-cell; white-space: nowrap; line-height: 1.5; max-width: 230px; text-align: center;"><span class="nodeLabel markdown-node-label" style=""><p>+DirectoryIterator val_data</p></span></div></foreignObject></g></g><g class="methods-group text" transform="translate(-342.5078125, 66)"><g class="label" style="" transform="translate(0,-24)"><foreignObject width="637" height="48"><div xmlns="http://www.w3.org/1999/xhtml" style="display: table; white-space: break-spaces; line-height: 1.5; max-width: 637px; text-align: center; width: 637px;"><span class="nodeLabel markdown-node-label" style=""><p>+create_generators(dataset_path Path, img_height int, img_width int, batch_size int) : void</p></span></div></foreignObject></g></g><g class="divider" style=""><path d="M-354.5078125 -54 C-151.21200639289145 -54, 52.08379971421709 -54, 354.5078125 -54 M-354.5078125 -54 C-156.09351564738944 -54, 42.320781205221124 -54, 354.5078125 -54" stroke="#ccc" stroke-width="1.3" fill="none" stroke-dasharray="0 0" style=""/></g><g class="divider" style=""><path d="M-354.5078125 42 C-132.39467156520948 42, 89.71846936958104 42, 354.5078125 42 M-354.5078125 42 C-175.10262120037075 42, 4.302570099258503 42, 354.5078125 42" stroke="#ccc" stroke-width="1.3" fill="none" stroke-dasharray="0 0" style=""/></g></g><g class="node default " id="classId-CnnModel-2" transform="translate(1058.71484375, 604)"><g class="basic label-container"><path d="M-291.69921875 -84 L291.69921875 -84 L291.69921875 84 L-291.69921875 84" stroke="none" stroke-width="0" fill="#1f2020" style=""/><path d="M-291.69921875 -84 C-165.57383832317313 -84, -39.44845789634627 -84, 291.69921875 -84 M-291.69921875 -84 C-156.60087737518964 -84, -21.50253600037928 -84, 291.69921875 -84 M291.69921875 -84 C291.69921875 -43.388849157233885, 291.69921875 -2.77769831446777, 291.69921875 84 M291.69921875 -84 C291.69921875 -43.14639393973707, 291.69921875 -2.292787879474133, 291.69921875 84 M291.69921875 84 C115.9518254496551 84, -59.79556785068979 84, -291.69921875 84 M291.69921875 84 C164.49032193827406 84, 37.2814251265481 84, -291.69921875 84 M-291.69921875 84 C-291.69921875 42.884702882739205, -291.69921875 1.7694057654784103, -291.69921875 -84 M-291.69921875 84 C-291.69921875 20.48938734428485, -291.69921875 -43.0212253114303, -291.69921875 -84" stroke="#ccc" stroke-width="1.3" fill="none" stroke-dasharray="0 0" style=""/></g><g class="annotation-group text" transform="translate(0, -60)"/><g class="label-group text" transform="translate(-38.6640625, -60)"><g class="label" style="font-weight: bolder" transform="translate(0,-12)"><foreignObject width="77.328125" height="24"><div xmlns="http://www.w3.org/1999/xhtml" style="display: table-cell; white-space: nowrap; line-height: 1.5; max-width: 119px; text-align: center;"><span class="nodeLabel markdown-node-label" style=""><p>CnnModel</p></span></div></foreignObject></g></g><g class="members-group text" transform="translate(-279.69921875, -12)"><g class="label" style="" transform="translate(0,-12)"><foreignObject width="132.984375" height="24"><div xmlns="http://www.w3.org/1999/xhtml" style="display: table-cell; white-space: nowrap; line-height: 1.5; max-width: 176px; text-align: center;"><span class="nodeLabel markdown-node-label" style=""><p>+Sequential model</p></span></div></foreignObject></g></g><g class="methods-group text" transform="translate(-279.69921875, 36)"><g class="label" style="" transform="translate(0,-12)"><foreignObject width="520.734375" height="24"><div xmlns="http://www.w3.org/1999/xhtml" style="display: table-cell; white-space: nowrap; line-height: 1.5; max-width: 537px; text-align: center;"><span class="nodeLabel markdown-node-label" style=""><p>+build_model(img_height int, img_width int, num_classes int) : Sequential</p></span></div></foreignObject></g><g class="label" style="" transform="translate(0,12)"><foreignObject width="436.125" height="24"><div xmlns="http://www.w3.org/1999/xhtml" style="display: table-cell; white-space: nowrap; line-height: 1.5; max-width: 497px; text-align: center;"><span class="nodeLabel markdown-node-label" style=""><p>+compile_model(optimizer str, loss str, metrics list&lt;str&gt;) : void</p></span></div></foreignObject></g></g><g class="divider" style=""><path d="M-291.69921875 -36 C-145.88329905620768 -36, -0.0673793624153518 -36, 291.69921875 -36 M-291.69921875 -36 C-61.4718698073913 -36, 168.7554791352174 -36, 291.69921875 -36" stroke="#ccc" stroke-width="1.3" fill="none" stroke-dasharray="0 0" style=""/></g><g class="divider" style=""><path d="M-291.69921875 12 C-158.64210412859117 12, -25.584989507182343 12, 291.69921875 12 M-291.69921875 12 C-112.86801369028393 12, 65.96319136943214 12, 291.69921875 12" stroke="#ccc" stroke-width="1.3" fill="none" stroke-dasharray="0 0" style=""/></g></g><g class="node default " id="classId-TrainingConfig-3" transform="translate(1764.6328125, 604)"><g class="basic label-container"><path d="M-364.21875 -114 L364.21875 -114 L364.21875 114 L-364.21875 114" stroke="none" stroke-width="0" fill="#1f2020" style=""/><path d="M-364.21875 -114 C-151.20895211850575 -114, 61.8008457629885 -114, 364.21875 -114 M-364.21875 -114 C-100.12052275190399 -114, 163.97770449619202 -114, 364.21875 -114 M364.21875 -114 C364.21875 -66.83005564546644, 364.21875 -19.660111290932903, 364.21875 114 M364.21875 -114 C364.21875 -45.868678275475844, 364.21875 22.262643449048312, 364.21875 114 M364.21875 114 C217.7512204905618 114, 71.28369098112358 114, -364.21875 114 M364.21875 114 C184.3250831678522 114, 4.431416335704398 114, -364.21875 114 M-364.21875 114 C-364.21875 42.04079845855978, -364.21875 -29.918403082880445, -364.21875 -114 M-364.21875 114 C-364.21875 26.68587340038738, -364.21875 -60.62825319922524, -364.21875 -114" stroke="#ccc" stroke-width="1.3" fill="none" stroke-dasharray="0 0" style=""/></g><g class="annotation-group text" transform="translate(0, -90)"/><g class="label-group text" transform="translate(-56.4375, -90)"><g class="label" style="font-weight: bolder" transform="translate(0,-12)"><foreignObject width="112.875" height="24"><div xmlns="http://www.w3.org/1999/xhtml" style="display: table-cell; white-space: nowrap; line-height: 1.5; max-width: 149px; text-align: center;"><span class="nodeLabel markdown-node-label" style=""><p>TrainingConfig</p></span></div></foreignObject></g></g><g class="members-group text" transform="translate(-352.21875, -42)"><g class="label" style="" transform="translate(0,-12)"><foreignObject width="187.234375" height="24"><div xmlns="http://www.w3.org/1999/xhtml" style="display: table-cell; white-space: nowrap; line-height: 1.5; max-width: 227px; text-align: center;"><span class="nodeLabel markdown-node-label" style=""><p>+EarlyStopping early_stop</p></span></div></foreignObject></g><g class="label" style="" transform="translate(0,12)"><foreignObject width="234.359375" height="24"><div xmlns="http://www.w3.org/1999/xhtml" style="display: table-cell; white-space: nowrap; line-height: 1.5; max-width: 312px; text-align: center;"><span class="nodeLabel markdown-node-label" style=""><p>+dict&lt;int,float&gt; class_weight_dict</p></span></div></foreignObject></g><g class="label" style="" transform="translate(0,36)"><foreignObject width="110.703125" height="24"><div xmlns="http://www.w3.org/1999/xhtml" style="display: table-cell; white-space: nowrap; line-height: 1.5; max-width: 160px; text-align: center;"><span class="nodeLabel markdown-node-label" style=""><p>+History history</p></span></div></foreignObject></g></g><g class="methods-group text" transform="translate(-352.21875, 54)"><g class="label" style="" transform="translate(0,-12)"><foreignObject width="450.453125" height="24"><div xmlns="http://www.w3.org/1999/xhtml" style="display: table-cell; white-space: nowrap; line-height: 1.5; max-width: 502px; text-align: center;"><span class="nodeLabel markdown-node-label" style=""><p>+compute_class_weights(train_classes ndarray) : dict&lt;int,float&gt;</p></span></div></foreignObject></g><g class="label" style="" transform="translate(0,0)"><foreignObject width="648" height="48"><div xmlns="http://www.w3.org/1999/xhtml" style="display: table; white-space: break-spaces; line-height: 1.5; max-width: 648px; text-align: center; width: 648px;"><span class="nodeLabel markdown-node-label" style=""><p>+create_early_stopping(monitor str, patience int, restore_best_weights bool) : EarlyStopping</p></span></div></foreignObject></g></g><g class="divider" style=""><path d="M-364.21875 -66 C-162.2097609618882 -66, 39.799228076223585 -66, 364.21875 -66 M-364.21875 -66 C-111.70682461129991 -66, 140.80510077740018 -66, 364.21875 -66" stroke="#ccc" stroke-width="1.3" fill="none" stroke-dasharray="0 0" style=""/></g><g class="divider" style=""><path d="M-364.21875 30 C-107.92941012791277 30, 148.35992974417445 30, 364.21875 30 M-364.21875 30 C-212.7533571156537 30, -61.2879642313074 30, 364.21875 30" stroke="#ccc" stroke-width="1.3" fill="none" stroke-dasharray="0 0" style=""/></g></g><g class="node default " id="classId-EvaluationAndInference-4" transform="translate(2362.2578125, 604)"><g class="basic label-container"><path d="M-183.40625 -84 L183.40625 -84 L183.40625 84 L-183.40625 84" stroke="none" stroke-width="0" fill="#1f2020" style=""/><path d="M-183.40625 -84 C-86.14614791562148 -84, 11.113954168757033 -84, 183.40625 -84 M-183.40625 -84 C-50.845091147198275 -84, 81.71606770560345 -84, 183.40625 -84 M183.40625 -84 C183.40625 -48.21557783403897, 183.40625 -12.431155668077935, 183.40625 84 M183.40625 -84 C183.40625 -39.38681224645253, 183.40625 5.226375507094943, 183.40625 84 M183.40625 84 C65.18876666404653 84, -53.02871667190695 84, -183.40625 84 M183.40625 84 C105.86771460482842 84, 28.329179209656843 84, -183.40625 84 M-183.40625 84 C-183.40625 49.803301075793755, -183.40625 15.60660215158751, -183.40625 -84 M-183.40625 84 C-183.40625 32.292836492707266, -183.40625 -19.414327014585467, -183.40625 -84" stroke="#ccc" stroke-width="1.3" fill="none" stroke-dasharray="0 0" style=""/></g><g class="annotation-group text" transform="translate(0, -60)"/><g class="label-group text" transform="translate(-91.578125, -60)"><g class="label" style="font-weight: bolder" transform="translate(0,-12)"><foreignObject width="183.15625" height="24"><div xmlns="http://www.w3.org/1999/xhtml" style="display: table-cell; white-space: nowrap; line-height: 1.5; max-width: 207px; text-align: center;"><span class="nodeLabel markdown-node-label" style=""><p>EvaluationAndInference</p></span></div></foreignObject></g></g><g class="members-group text" transform="translate(-171.40625, -12)"><g class="label" style="" transform="translate(0,-12)"><foreignObject width="110.703125" height="24"><div xmlns="http://www.w3.org/1999/xhtml" style="display: table-cell; white-space: nowrap; line-height: 1.5; max-width: 160px; text-align: center;"><span class="nodeLabel markdown-node-label" style=""><p>+History history</p></span></div></foreignObject></g></g><g class="methods-group text" transform="translate(-171.40625, 36)"><g class="label" style="" transform="translate(0,-12)"><foreignObject width="205.890625" height="24"><div xmlns="http://www.w3.org/1999/xhtml" style="display: table-cell; white-space: nowrap; line-height: 1.5; max-width: 247px; text-align: center;"><span class="nodeLabel markdown-node-label" style=""><p>+plot_training_curves() : void</p></span></div></foreignObject></g><g class="label" style="" transform="translate(0,12)"><foreignObject width="251.234375" height="24"><div xmlns="http://www.w3.org/1999/xhtml" style="display: table-cell; white-space: nowrap; line-height: 1.5; max-width: 287px; text-align: center;"><span class="nodeLabel markdown-node-label" style=""><p>+predict_image(img_path str) : void</p></span></div></foreignObject></g></g><g class="divider" style=""><path d="M-183.40625 -36 C-74.1149030905975 -36, 35.17644381880501 -36, 183.40625 -36 M-183.40625 -36 C-52.137994510789156 -36, 79.13026097842169 -36, 183.40625 -36" stroke="#ccc" stroke-width="1.3" fill="none" stroke-dasharray="0 0" style=""/></g><g class="divider" style=""><path d="M-183.40625 12 C-95.88869915504397 12, -8.371148310087932 12, 183.40625 12 M-183.40625 12 C-56.81807818703098 12, 69.77009362593805 12, 183.40625 12" stroke="#ccc" stroke-width="1.3" fill="none" stroke-dasharray="0 0" style=""/></g></g><g class="node default " id="classId-ImageDataGenerator-5" transform="translate(362.5078125, 834)"><g class="basic label-container"><path d="M-90.6953125 -42 L90.6953125 -42 L90.6953125 42 L-90.6953125 42" stroke="none" stroke-width="0" fill="#1f2020" style=""/><path d="M-90.6953125 -42 C-44.218026772684595 -42, 2.259258954630809 -42, 90.6953125 -42 M-90.6953125 -42 C-19.056516058443606 -42, 52.58228038311279 -42, 90.6953125 -42 M90.6953125 -42 C90.6953125 -20.253428440398817, 90.6953125 1.4931431192023652, 90.6953125 42 M90.6953125 -42 C90.6953125 -13.518091413682264, 90.6953125 14.963817172635473, 90.6953125 42 M90.6953125 42 C52.714091125931944 42, 14.732869751863888 42, -90.6953125 42 M90.6953125 42 C43.87802251154754 42, -2.9392674769049165 42, -90.6953125 42 M-90.6953125 42 C-90.6953125 18.08876932993815, -90.6953125 -5.822461340123702, -90.6953125 -42 M-90.6953125 42 C-90.6953125 10.003401352017242, -90.6953125 -21.993197295965516, -90.6953125 -42" stroke="#ccc" stroke-width="1.3" fill="none" stroke-dasharray="0 0" style=""/></g><g class="annotation-group text" transform="translate(0, -18)"/><g class="label-group text" transform="translate(-78.6953125, -18)"><g class="label" style="font-weight: bolder" transform="translate(0,-12)"><foreignObject width="157.390625" height="24"><div xmlns="http://www.w3.org/1999/xhtml" style="display: table-cell; white-space: nowrap; line-height: 1.5; max-width: 185px; text-align: center;"><span class="nodeLabel markdown-node-label" style=""><p>ImageDataGenerator</p></span></div></foreignObject></g></g><g class="members-group text" transform="translate(-78.6953125, 30)"/><g class="methods-group text" transform="translate(-78.6953125, 60)"/><g class="divider" style=""><path d="M-90.6953125 6 C-48.37993657809917 6, -6.0645606561983385 6, 90.6953125 6 M-90.6953125 6 C-32.97307306917035 6, 24.749166361659306 6, 90.6953125 6" stroke="#ccc" stroke-width="1.3" fill="none" stroke-dasharray="0 0" style=""/></g><g class="divider" style=""><path d="M-90.6953125 24 C-37.635960033444086 24, 15.423392433111829 24, 90.6953125 24 M-90.6953125 24 C-53.54047314516612 24, -16.385633790332236 24, 90.6953125 24" stroke="#ccc" stroke-width="1.3" fill="none" stroke-dasharray="0 0" style=""/></g></g><g class="node default " id="classId-Sequential-6" transform="translate(1058.71484375, 834)"><g class="basic label-container"><path d="M-52.453125 -42 L52.453125 -42 L52.453125 42 L-52.453125 42" stroke="none" stroke-width="0" fill="#1f2020" style=""/><path d="M-52.453125 -42 C-28.076347466830033 -42, -3.699569933660065 -42, 52.453125 -42 M-52.453125 -42 C-18.678226374226092 -42, 15.096672251547815 -42, 52.453125 -42 M52.453125 -42 C52.453125 -12.410314875793993, 52.453125 17.179370248412013, 52.453125 42 M52.453125 -42 C52.453125 -19.67999151173733, 52.453125 2.640016976525338, 52.453125 42 M52.453125 42 C24.298146669792526 42, -3.8568316604149473 42, -52.453125 42 M52.453125 42 C30.746471323256927 42, 9.039817646513853 42, -52.453125 42 M-52.453125 42 C-52.453125 11.986236282495327, -52.453125 -18.027527435009347, -52.453125 -42 M-52.453125 42 C-52.453125 11.539325305928944, -52.453125 -18.92134938814211, -52.453125 -42" stroke="#ccc" stroke-width="1.3" fill="none" stroke-dasharray="0 0" style=""/></g><g class="annotation-group text" transform="translate(0, -18)"/><g class="label-group text" transform="translate(-40.453125, -18)"><g class="label" style="font-weight: bolder" transform="translate(0,-12)"><foreignObject width="80.90625" height="24"><div xmlns="http://www.w3.org/1999/xhtml" style="display: table-cell; white-space: nowrap; line-height: 1.5; max-width: 118px; text-align: center;"><span class="nodeLabel markdown-node-label" style=""><p>Sequential</p></span></div></foreignObject></g></g><g class="members-group text" transform="translate(-40.453125, 30)"/><g class="methods-group text" transform="translate(-40.453125, 60)"/><g class="divider" style=""><path d="M-52.453125 6 C-14.487751140435584 6, 23.47762271912883 6, 52.453125 6 M-52.453125 6 C-13.095171392867627 6, 26.262782214264746 6, 52.453125 6" stroke="#ccc" stroke-width="1.3" fill="none" stroke-dasharray="0 0" style=""/></g><g class="divider" style=""><path d="M-52.453125 24 C-13.951980801102955 24, 24.54916339779409 24, 52.453125 24 M-52.453125 24 C-13.683223541573916 24, 25.086677916852167 24, 52.453125 24" stroke="#ccc" stroke-width="1.3" fill="none" stroke-dasharray="0 0" style=""/></g></g><g class="node default " id="classId-EarlyStopping-7" transform="translate(1764.6328125, 834)"><g class="basic label-container"><path d="M-66.2265625 -42 L66.2265625 -42 L66.2265625 42 L-66.2265625 42" stroke="none" stroke-width="0" fill="#1f2020" style=""/><path d="M-66.2265625 -42 C-20.690179783115838 -42, 24.846202933768325 -42, 66.2265625 -42 M-66.2265625 -42 C-29.255408342548655 -42, 7.715745814902689 -42, 66.2265625 -42 M66.2265625 -42 C66.2265625 -23.665209155613802, 66.2265625 -5.330418311227604, 66.2265625 42 M66.2265625 -42 C66.2265625 -14.70576675363722, 66.2265625 12.588466492725559, 66.2265625 42 M66.2265625 42 C26.475329222191007 42, -13.275904055617985 42, -66.2265625 42 M66.2265625 42 C21.815107897579324 42, -22.596346704841352 42, -66.2265625 42 M-66.2265625 42 C-66.2265625 19.688044801587274, -66.2265625 -2.623910396825451, -66.2265625 -42 M-66.2265625 42 C-66.2265625 12.953671649941843, -66.2265625 -16.092656700116315, -66.2265625 -42" stroke="#ccc" stroke-width="1.3" fill="none" stroke-dasharray="0 0" style=""/></g><g class="annotation-group text" transform="translate(0, -18)"/><g class="label-group text" transform="translate(-54.2265625, -18)"><g class="label" style="font-weight: bolder" transform="translate(0,-12)"><foreignObject width="108.453125" height="24"><div xmlns="http://www.w3.org/1999/xhtml" style="display: table-cell; white-space: nowrap; line-height: 1.5; max-width: 142px; text-align: center;"><span class="nodeLabel markdown-node-label" style=""><p>EarlyStopping</p></span></div></foreignObject></g></g><g class="members-group text" transform="translate(-54.2265625, 30)"/><g class="methods-group text" transform="translate(-54.2265625, 60)"/><g class="divider" style=""><path d="M-66.2265625 6 C-27.172288675834565 6, 11.88198514833087 6, 66.2265625 6 M-66.2265625 6 C-37.607123382910274 6, -8.987684265820548 6, 66.2265625 6" stroke="#ccc" stroke-width="1.3" fill="none" stroke-dasharray="0 0" style=""/></g><g class="divider" style=""><path d="M-66.2265625 24 C-32.46633105963549 24, 1.2939003807290135 24, 66.2265625 24 M-66.2265625 24 C-32.744323125142586 24, 0.7379162497148286 24, 66.2265625 24" stroke="#ccc" stroke-width="1.3" fill="none" stroke-dasharray="0 0" style=""/></g></g></g></g></g></svg>